<svg width="24" height="19" viewBox="0 0 24 19" fill="none" xmlns="http://www.w3.org/2000/svg">
<path id="Vector" d="M21.4189 7.24268L20.8701 5.87061L19.897 3.4375C19.0615 1.34912 17.0688 0 14.8193 0H8.61816C6.36914 0 4.37598 1.34912 3.54053 3.4375L2.56738 5.87061L2.01855 7.24268C0.84082 7.69043 0 8.82129 0 10.1562V12.5C0 13.2871 0.300781 13.9976 0.78125 14.5474V17.1875C0.78125 18.0503 1.48096 18.75 2.34375 18.75H3.90625C4.76904 18.75 5.46875 18.0503 5.46875 17.1875V15.625H17.9688V17.1875C17.9688 18.0503 18.6685 18.75 19.5312 18.75H21.0938C21.9565 18.75 22.6562 18.0503 22.6562 17.1875V14.5474C23.1367 13.998 23.4375 13.2876 23.4375 12.5V10.1562C23.4375 8.82129 22.5967 7.69043 21.4189 7.24268ZM6.44189 4.59814C6.79785 3.7085 7.65967 3.125 8.61816 3.125H14.8193C15.7778 3.125 16.6396 3.7085 16.9956 4.59814L17.9688 7.03125H5.46875L6.44189 4.59814ZM3.90625 12.4902C2.96875 12.4902 2.34375 11.8672 2.34375 10.9326C2.34375 9.99805 2.96875 9.375 3.90625 9.375C4.84375 9.375 6.25 10.7769 6.25 11.7114C6.25 12.646 4.84375 12.4902 3.90625 12.4902ZM19.5312 12.4902C18.5937 12.4902 17.1875 12.646 17.1875 11.7114C17.1875 10.7769 18.5937 9.375 19.5312 9.375C20.4688 9.375 21.0938 9.99805 21.0938 10.9326C21.0938 11.8672 20.4688 12.4902 19.5312 12.4902Z" fill="#13ACB6"/>
</svg>
