<svg width="60" height="48" viewBox="0 0 60 48" fill="none" xmlns="http://www.w3.org/2000/svg">
<path id="Vector" d="M26.1512 47.9533L20.432 46.2937C19.832 46.125 19.4944 45.4968 19.6632 44.8968L32.461 0.812201C32.6298 0.212156 33.258 -0.12537 33.858 0.0433932L39.5772 1.70289C40.1772 1.87166 40.5148 2.49983 40.346 3.09987L27.5482 47.1844C27.37 47.7845 26.7512 48.1314 26.1512 47.9533ZM15.4629 37.4337L19.5413 33.0834C19.9726 32.624 19.9445 31.8927 19.4663 31.4708L10.9719 23.9983L19.4663 16.5259C19.9445 16.104 19.982 15.3727 19.5413 14.9133L15.4629 10.5629C15.041 10.1129 14.3284 10.0848 13.869 10.5161L0.358621 23.1733C-0.11954 23.6139 -0.11954 24.3734 0.358621 24.814L13.869 37.4806C14.3284 37.9119 15.041 37.8931 15.4629 37.4337ZM46.1402 37.49L59.6506 24.8234C60.1287 24.3827 60.1287 23.6233 59.6506 23.1826L46.1402 10.5067C45.6902 10.0848 44.9776 10.1035 44.5463 10.5536L40.4679 14.9039C40.0366 15.3633 40.0647 16.0946 40.5429 16.5165L49.0373 23.9983L40.5429 31.4708C40.0647 31.8927 40.0272 32.624 40.4679 33.0834L44.5463 37.4337C44.9682 37.8931 45.6808 37.9119 46.1402 37.49Z" fill="#13ACB6"/>
</svg>
