<svg width="52" height="48" viewBox="0 0 52 48" fill="none" xmlns="http://www.w3.org/2000/svg">
<path id="Vector" d="M51.4285 10.2857V12C51.4285 12.2273 51.3382 12.4454 51.1775 12.6061C51.0167 12.7669 50.7987 12.8572 50.5714 12.8572H47.9999V14.1429C47.9999 14.8529 47.4243 15.4286 46.7142 15.4286H4.71428C4.00425 15.4286 3.42857 14.8529 3.42857 14.1429V12.8572H0.857142C0.629814 12.8572 0.411796 12.7669 0.251051 12.6061C0.0903057 12.4454 0 12.2273 0 12V10.2857C1.22587e-06 10.1162 0.0503012 9.9504 0.144536 9.80942C0.23877 9.66844 0.372704 9.55858 0.529392 9.49374L25.3865 0.0651719C25.5964 -0.021724 25.8321 -0.021724 26.042 0.0651719L50.8991 9.49374C51.0558 9.55858 51.1897 9.66844 51.284 9.80942C51.3782 9.9504 51.4285 10.1162 51.4285 10.2857ZM48.8571 42.8571H2.57143C1.15125 42.8571 0 44.0084 0 45.4286V47.1429C0 47.3702 0.0903057 47.5882 0.251051 47.749C0.411796 47.9097 0.629814 48 0.857142 48H50.5714C50.7987 48 51.0167 47.9097 51.1775 47.749C51.3382 47.5882 51.4285 47.3702 51.4285 47.1429V45.4286C51.4285 44.0084 50.2773 42.8571 48.8571 42.8571ZM8.57142 17.1429V37.7143H4.71428C4.00425 37.7143 3.42857 38.29 3.42857 39V41.1429H47.9999V39C47.9999 38.29 47.4243 37.7143 46.7142 37.7143H42.8571V17.1429H36V37.7143H29.1428V17.1429H22.2857V37.7143H15.4286V17.1429H8.57142Z" fill="#13ACB6"/>
</svg>
