<svg width="25" height="23" viewBox="0 0 25 23" fill="none" xmlns="http://www.w3.org/2000/svg">
<path id="Vector" d="M24.7963 8.41753L23.8141 7.43533C23.5428 7.16406 23.1032 7.16406 22.8319 7.43533L22.341 7.92621L21.0867 6.67187C21.331 5.74696 21.1023 4.72309 20.377 3.99783L18.413 2.03385C15.7012 -0.677951 11.3041 -0.677951 8.59187 2.03385L12.5203 3.99783V4.81163C12.5203 5.54818 12.8128 6.25477 13.3341 6.77561L15.4669 8.90842C16.1921 9.63368 17.216 9.86241 18.1409 9.61806L19.3953 10.8724L18.9044 11.3633C18.6331 11.6345 18.6331 12.0742 18.9044 12.3455L19.8866 13.3277C20.1578 13.599 20.5975 13.599 20.8688 13.3277L24.7972 9.39931C25.0676 9.12847 25.0676 8.6888 24.7963 8.41753ZM12.3519 7.75781C12.1913 7.59722 12.055 7.4197 11.9243 7.23915L0.852287 17.5764C-0.257522 18.6128 -0.28747 20.3624 0.78588 21.4362C1.85923 22.51 3.60923 22.48 4.64569 21.3698L14.9812 10.299C14.8093 10.1727 14.6383 10.0443 14.4847 9.89062L12.3519 7.75781Z" fill="#13ACB6"/>
</svg>
