<svg width="63" height="49" viewBox="0 0 63 49" fill="none" xmlns="http://www.w3.org/2000/svg">
<path id="Vector" d="M24.9053 24.9374C25.5156 25.523 26.5049 25.523 27.1152 24.9374L28.2197 23.8777C28.8301 23.292 28.8301 22.3428 28.2197 21.7572L24.7314 18.4111L28.2188 15.0641C28.8291 14.4785 28.8291 13.5293 28.2188 12.9437L27.1143 11.8839C26.5039 11.2983 25.5146 11.2983 24.9043 11.8839L19.207 17.3504C18.5967 17.9361 18.5967 18.8853 19.207 19.4709L24.9053 24.9374ZM34.2812 23.8786L35.3857 24.9384C35.9961 25.524 36.9854 25.524 37.5957 24.9384L43.293 19.4718C43.9033 18.8862 43.9033 17.937 43.293 17.3514L37.5957 11.8848C36.9854 11.2992 35.9961 11.2992 35.3857 11.8848L34.2812 12.9446C33.6709 13.5302 33.6709 14.4794 34.2812 15.0651L37.7686 18.4111L34.2812 21.7581C33.6709 22.3438 33.6709 23.293 34.2812 23.8786ZM60.9375 39.4002H37.2598C37.1875 41.2564 35.8232 42.3986 34.0625 42.3986H28.125C26.2998 42.3986 24.9004 40.7617 24.9248 39.4002H1.5625C0.703125 39.4002 0 40.0748 0 40.8994V42.3986C0 45.6969 2.8125 48.3955 6.25 48.3955H56.25C59.6875 48.3955 62.5 45.6969 62.5 42.3986V40.8994C62.5 40.0748 61.7969 39.4002 60.9375 39.4002ZM56.25 4.91816C56.25 2.44445 54.1406 0.420502 51.5625 0.420502H10.9375C8.35938 0.420502 6.25 2.44445 6.25 4.91816V36.4017H56.25V4.91816ZM50 30.4049H12.5V6.41738H50V30.4049Z" fill="#13ACB6"/>
</svg>
